<svg width="33" height="36" viewBox="0 0 33 36" fill="none" xmlns="http://www.w3.org/2000/svg">
<style>
  .color-1 {
    fill: #42636D;
  }
  .color-2 {
    fill: #B5CBD2;
  }

  @media (prefers-color-scheme: dark) {
    .color-1 {
        fill: #E8E8E8;
    }
    .color-2 {
        fill: #909090;
    }
  }
</style>

<path d="M14.0317 8.73645H18.3703V26.2093H14.0317V8.73645Z" class="color-2"/>
<path d="M28.1323 8.73645H32.4709V19.6569H28.1323V8.73645Z" class="color-2"/>
<path d="M28.1323 24.0253H32.4709V26.2093H28.1323V24.0253Z" class="color-2"/>
<path d="M14.0317 19.6569V15.2888H32.4708V19.6569H14.0317Z" class="color-2"/>
<path fill-rule="evenodd" clip-rule="evenodd" d="M23.2514 18.5649C28.3431 18.5649 32.4708 14.409 32.4708 9.28245C32.4708 4.15591 28.3431 0 23.2514 0C18.1595 0 14.0317 4.15591 14.0317 9.28245C14.0317 14.409 18.1595 18.5649 23.2514 18.5649ZM18.3703 8.73643C18.5511 7.28037 19.7587 4.36822 23.1429 4.36822C26.5269 4.36822 27.8791 7.28037 28.1322 8.73643V15.2888H18.3703V8.73643Z" class="color-2"/>
<path d="M23.2514 35.6011C28.3431 35.6011 32.4708 31.445 32.4708 26.3185C32.4708 25.527 32.3724 24.7587 32.1874 24.0253H28.1322V26.0784C27.8791 27.5052 26.5269 30.3592 23.1429 30.3592C19.7587 30.3592 18.5511 27.5052 18.3703 26.0784V19.6569H28.1322H29.6718C28.0119 18.0348 25.7474 17.0361 23.2514 17.0361C18.1595 17.0361 14.0317 21.192 14.0317 26.3185C14.0317 31.445 18.1595 35.6011 23.2514 35.6011Z" class="color-2"/>
<path d="M0 8.73645H4.33861V26.2093H0V8.73645Z" class="color-1"/>
<path d="M14.1006 8.73645H18.4392V19.6569H14.1006V8.73645Z" class="color-1"/>
<path d="M14.1006 24.0253H18.4392V26.2093H14.1006V24.0253Z" class="color-1"/>
<path d="M0 19.6569V15.2888H18.4391V19.6569H0Z" class="color-1"/>
<path fill-rule="evenodd" clip-rule="evenodd" d="M9.21955 18.5649C14.3113 18.5649 18.4391 14.409 18.4391 9.28245C18.4391 4.15591 14.3113 0 9.21955 0C4.12774 0 0 4.15591 0 9.28245C0 14.409 4.12774 18.5649 9.21955 18.5649ZM4.33861 8.73643C4.51938 7.28037 5.72696 4.36822 9.11107 4.36822C12.4952 4.36822 13.8474 7.28037 14.1005 8.73643V15.2888H4.33861V8.73643Z" class="color-1"/>
<path d="M9.21955 35.6011C14.3113 35.6011 18.4391 31.445 18.4391 26.3185C18.4391 25.527 18.3407 24.7587 18.1556 24.0253H14.1005V26.0784C13.8474 27.5052 12.4952 30.3592 9.11107 30.3592C5.72696 30.3592 4.51938 27.5052 4.33861 26.0784V19.6569H14.1005H15.6401C13.9801 18.0348 11.7157 17.0361 9.21955 17.0361C4.12774 17.0361 0 21.192 0 26.3185C0 31.445 4.12774 35.6011 9.21955 35.6011Z" class="color-1"/>
</svg>
