<svg width="555" height="96" viewBox="0 0 555 96" fill="none" xmlns="http://www.w3.org/2000/svg">
<path fill-rule="evenodd" clip-rule="evenodd" d="M95.3546 95.4066C95.7574 94.1046 97.6116 93.741 100.984 93.3608C103.615 93.0636 106.334 92.7573 107.578 91.1354C108.245 90.277 108.393 89.1605 108.043 87.8177C107.553 85.9831 104.796 85.1292 103.081 85.1292C101.032 85.2137 99.0539 85.9831 96.9644 86.7978C94.4508 87.7755 91.8513 88.7863 89.2246 88.7863C87.7536 88.7863 86.4259 88.4695 85.1556 87.8087C83.8053 86.5927 83.0509 85.2348 83.0313 83.7819C83.0011 80.5804 86.6055 77.3155 89.5007 74.6903C90.5372 73.7564 91.4983 72.8844 92.227 72.0953L94.1385 70.0163L91.2735 70.7752C86.6296 72.0018 81.1424 75.3481 77.5033 77.566L76.242 78.3309C71.5635 81.0481 64.818 82.8088 59.0697 82.8088C57.3166 82.8088 55.6827 82.6473 54.2283 82.326C52.1538 81.6456 51.594 79.2452 51.0117 76.6984C50.4474 74.2422 49.8545 71.7046 47.7091 70.3724L46.3693 69.5426L46.2833 71.0075C46.0751 74.5938 46.0615 78.9661 46.2516 83.0924C46.0932 83.1301 45.9363 83.1482 45.7734 83.1482C45.2438 83.1482 44.7067 82.9672 44.1289 82.7801C43.4243 82.5523 42.6262 82.2958 41.7179 82.2958L40.9666 82.4648C38.963 83.8091 39.8924 85.9168 40.5728 87.4557C40.7553 87.8524 40.9258 88.2357 41.036 88.5781C40.9138 88.5993 40.7795 88.6098 40.6362 88.6098C39.6042 88.6098 38.272 88.0803 37.4814 87.5839L36.451 86.9548L36.0904 88.0244C35.4778 89.8455 36.024 91.2697 36.5445 92.6502C36.893 93.5479 37.2174 94.4094 37.2551 95.4066H18.2603C18.639 94.8786 19.1519 94.4335 19.7071 93.9477C20.5792 93.1933 21.5538 92.3469 22.0547 91.0449C26.5537 90.3373 32.8904 89.1288 34.1562 83.5511C34.8366 80.5894 34.7355 77.3185 34.6405 74.1547C34.5062 69.7146 34.3795 65.5082 36.2895 62.4425L37.0937 62.5919C37.8963 62.7518 38.7246 62.9147 39.6042 62.9147C39.9074 62.9147 40.2016 62.8981 40.4838 62.8514C40.7493 63.8366 41.3151 64.5804 42.1524 65.0677C42.771 65.2985 43.2478 65.3755 43.7124 65.3755C45.5576 65.3755 47.1086 64.2288 48.3608 63.3115C48.8753 62.9253 49.5919 62.3988 49.8816 62.3595C50.1215 62.3595 50.4067 62.4651 50.6782 62.5662C51.0992 62.7216 51.5714 62.8997 52.116 62.8997C54.6356 62.5542 56.339 61.0575 57.8054 59.5986C58.4587 59.9939 59.1769 60.1945 59.9554 60.1945C62.0012 60.1945 63.9143 58.7733 65.331 57.5784C65.9857 58.461 66.9317 58.5832 67.3949 58.5832C69.5026 58.5787 72.1609 56.4121 73.3845 54.5775C74.5025 55.2368 75.6084 55.5703 76.6811 55.5673C77.1518 55.5673 77.6225 55.5039 78.0812 55.3741C79.949 57.8756 83.0388 59.1882 87.0762 59.1882C87.9075 59.1882 88.772 59.1324 89.6531 59.0268C90.9355 58.8668 92.1259 58.6058 93.3464 58.3373C95.3923 57.8847 97.503 57.4185 100.339 57.4185C100.947 57.4185 101.578 57.4381 102.252 57.4833C104.985 57.6734 107.052 58.4655 109.452 59.3828L112.551 60.54L112.313 59.1082C111.391 53.6285 107.175 49.7949 103.093 46.0895C99.4643 42.7959 95.7182 39.3952 94.395 34.8721C93.2378 30.9222 94.1551 25.6975 96.5238 22.7163C98.1698 20.6584 101.085 19.373 104.149 19.373C107.815 19.373 110.745 21.1291 111.988 24.0681C112.66 25.6764 113.056 27.3255 113.438 28.9217C114.085 31.6314 114.699 34.2113 116.599 36.1138C116.321 36.1681 116.02 36.1937 115.695 36.1937C114.248 36.1937 112.589 35.6657 111.585 35.1406C107.934 33.2351 110.043 25.7187 104.923 24.1677C103.657 23.7845 102.427 23.6909 101.543 23.6909C99.9034 23.6909 98.5334 24.3804 97.5799 25.6809C95.8902 27.9833 95.7408 31.9587 97.2133 35.1437C99.9894 41.1076 107.578 46.3474 112.602 49.8175L113.42 50.3833C114.819 51.198 119.411 57.4185 117.634 63.915C117.076 65.9593 115.244 67.9056 113.482 69.784C110.819 72.6143 108.069 75.5397 109.417 79.0309C109.915 80.3028 111.436 81.0013 112.916 81.6757C114.161 82.2475 115.449 82.8359 115.644 83.5767C115.994 84.8953 115.19 86.2291 114.342 87.6397C113.594 88.8874 112.817 90.1789 112.779 91.585C112.743 92.9429 113.307 93.6776 113.761 94.2706C114.033 94.6342 114.274 94.9434 114.399 95.4066H95.3546ZM27.4952 53.2363C27.4212 52.9813 27.3579 52.7837 27.3579 52.5438L27.3443 51.3609L26.1207 51.7849C25.3151 52.1002 25.0375 52.2103 24.8187 52.2179C24.8323 50.768 24.5381 49.036 22.9026 48.2349L22.5722 48.2243C20.7497 48.2243 20.0225 49.0058 19.4808 49.5852C18.9905 50.1162 18.7008 50.3954 18.1184 50.4467C17.6085 50.2475 17.3339 49.377 16.9809 47.9663C16.8466 47.4126 16.7048 46.8574 16.5117 46.3655L16.2522 45.7198L15.4993 45.8345C13.5002 46.1332 12.1997 47.0158 10.9505 47.8743C9.71938 48.7131 8.64064 49.4509 6.93126 49.641C6.27647 49.0481 5.39991 48.7629 4.26685 48.7629C3.70863 48.7629 3.12475 48.8293 2.55898 48.9032C2.0958 48.9606 1.64922 49.0209 1.23281 49.0209C0.487504 49.0209 0.223474 48.8414 0.0544973 48.2379C-0.26837 47.0973 0.900892 45.6202 2.0445 44.1915C2.5967 43.4944 3.13531 42.8065 3.52758 42.1562C4.10392 41.9706 4.7074 41.8877 5.42857 41.8877C5.98831 41.8877 6.55408 41.9344 7.1455 41.9827C7.84555 42.0415 8.58181 42.1019 9.37389 42.1019C9.68167 42.1019 9.99548 42.0928 10.3168 42.0732C11.9372 41.9661 13.5319 41.5769 15.0784 41.1997C16.5554 40.8436 17.9419 40.4996 19.0554 40.4996C21.071 40.6837 22.797 41.5241 24.6195 42.4112C26.7287 43.4432 28.9028 44.5008 31.276 44.8176C31.4541 47.6465 31.0497 51.806 27.5947 53.6104L27.4952 53.2363ZM77.3163 51.0139C80.2175 45.5192 73.5188 41.1076 75.0426 36.1092C73.6983 35.7924 72.8021 35.0546 72.2017 34.0544C70.9359 36.8485 69.9431 39.8886 67.0901 41.2495C65.9465 40.646 65.4079 39.5099 64.5268 38.6771C62.6002 40.7078 60.3054 42.3976 57.4252 43.5639C56.5879 42.3478 55.396 41.4547 55.1456 39.706C52.9956 40.7621 52.1145 42.9589 49.4652 43.5639C48.1662 42.6828 47.8765 40.8859 46.6258 39.961C46.2109 41.3023 45.2574 42.1472 44.064 42.7899C44.3054 43.4311 44.4412 44.1643 44.3552 45.1027C43.2855 48.5924 38.0608 52.6434 38.097 56.1511C38.109 57.5965 38.5254 58.5606 39.5152 58.716C42.3817 59.1701 43.901 50.6202 44.9179 48.7011C48.3804 52.5196 42.4994 56.9402 44.6418 61.0334C46.3738 60.1945 47.5054 60.3891 48.6143 59.2335C52.1477 55.5295 47.5582 48.5562 51.1731 45.3622C52.2066 49.4977 52.2669 54.6303 52.3061 58.977C54.9192 58.547 56.6633 57.2932 57.1416 55.1252C57.8054 52.0746 54.7427 47.8275 57.1416 46.1272C58.6624 49.5188 58.9732 52.4442 59.6929 56.4076C66.3569 55.5145 62.8521 49.1295 63.1071 44.5898C65.6402 46.8348 66.5862 50.5176 67.6499 54.0947C74.2279 52.8772 67.5608 45.7259 69.9311 41.7579C73.0028 44.1417 71.298 52.1409 77.3163 51.0139ZM40.6603 46.1272C40.9545 46.1151 40.8851 45.7998 40.3721 45.8722C35.8791 47.8094 30.3467 52.5724 33.5512 58.4625C36.1764 55.7709 36.4208 51.5193 38.6688 48.4416C39.2843 47.6027 40.4974 47.2829 40.6603 46.1272ZM41.2155 26.212C41.2155 26.212 35.4326 25.4637 36.3076 20.9466C36.3076 20.9466 41.7571 21.5697 42.7348 20.5121C43.7094 19.4559 45.0673 17.5338 42.7348 15.8999C40.3993 14.2659 35.2364 17.5836 35.3345 19.5057C35.3345 19.5057 34.4579 18.4481 34.2633 17.7752C34.2633 17.7752 32.9975 17.392 33.5814 14.8921C33.5814 14.8921 32.6082 14.6039 32.4136 14.3157C32.2341 14.0487 31.4722 13.2023 37.1027 10.7823L38.5466 10.1833C38.5466 10.1833 38.3519 7.10855 43.803 5.85933C43.803 5.85933 51.5669 5.63754 55.5454 4.74438C60.1198 3.71845 63.8599 -1.62244 69.9989 0.489776C71.4564 3.04254 68.0814 4.73683 68.021 6.89129C67.9591 8.8647 70.447 10.4564 71.4051 12.4675C72.2801 14.2961 73.3936 17.3799 73.6621 18.8721C74.3305 22.6152 73.7647 26.0159 74.7861 29.1767C75.3519 30.9102 76.7324 31.9225 76.7686 33.9095C72.3284 32.9937 71.3553 28.6682 69.4271 25.2781C67.8007 28.2729 70.1362 36.4849 66.891 37.8066C64.8225 33.561 66.467 26.0898 64.9206 20.8153C62.2396 22.576 63.8871 26.4278 63.7875 29.4543C63.6351 34.2867 61.9529 39.8011 57.8643 40.0349C56.953 34.0242 59.8965 29.4271 59.2704 22.7691C56.9017 22.9788 57.3634 27.4175 56.4521 30.5662C55.1984 34.8766 52.5626 38.06 50.2422 39.7558C48.6943 33.3136 53.5357 30.2705 52.2277 24.1601C50.5032 25.5406 50.6677 27.7011 49.9676 29.4543C47.0512 36.752 41.6862 42.0295 35.8656 46.4455C34.9045 38.9441 48.566 36.3386 46.8627 28.0632C46.4281 25.9495 41.7013 24.0017 41.2155 26.212ZM53.5297 11.0478C53.1299 11.861 51.9591 11.8942 50.7084 11.8806C50.1502 13.7786 45.6572 15.6449 45.63 11.8806C45.3735 11.3933 44.6433 11.3677 44.2179 11.0478C45.9016 7.13872 50.1245 11.0071 53.5297 11.0478Z" fill="#1E2E05"/>
<path fill-rule="evenodd" clip-rule="evenodd" d="M525.171 22.4694C519.64 22.4694 514.877 24.2844 510.888 27.9114C506.896 31.5142 504.901 35.8805 504.901 41.0086C504.901 46.164 506.896 50.5543 510.888 54.1813C514.877 57.7842 519.637 59.5856 525.171 59.5856C530.731 59.5856 535.491 57.7842 539.456 54.1813C543.445 50.5543 545.439 46.164 545.441 41.0086C545.441 35.8805 543.445 31.5157 539.456 27.9114C535.492 24.2844 530.731 22.4709 525.171 22.4694ZM546.225 22.0576C552.032 27.3109 554.935 33.628 554.937 41.0086C554.937 48.415 552.032 54.7577 546.225 60.0367C540.445 65.2901 533.428 67.9183 525.171 67.9183C516.941 67.9183 509.924 65.2901 504.117 60.0367C498.308 54.7577 495.405 48.415 495.405 41.0086C495.405 33.628 498.308 27.3124 504.117 22.0576C509.924 16.7785 516.941 14.1383 525.171 14.1383C533.428 14.1383 540.445 16.7785 546.225 22.0576ZM478.438 23.0699V67.3555H469.027V23.0699H455.94V14.8142H491.525V23.0699H478.438ZM445.124 68.3301L418.497 34.4034V67.3555H409.043V14.8142H414.657L440.624 47.9141V14.8142H450.118V68.3301H445.124ZM399.918 14.8142V23.0699H377.007V36.9185H399.918V45.2497H377.007V59.0983H399.918V67.3555H367.553V14.8142H399.918ZM326.848 14.8142L337.747 41.8716L348.563 14.8142H358.553L337.747 66.9798L316.858 14.8142H326.848ZM311.086 67.3555L306.711 56.283H293.499L289.083 67.3555H279.05L300.146 14.7764L321.077 67.3555H311.086ZM300.059 37.3862L304.743 48.9943H295.43L300.059 37.3862ZM248.501 49.7909L245.363 50.7294H244.868V67.3555H235.414V14.8142H252.464C257.307 15.4146 261.38 17.204 264.684 20.1792C268.564 23.7081 270.506 27.9491 270.506 32.9023C270.506 37.9067 268.537 42.1854 264.602 45.7385C261.932 48.166 260.253 49.4666 259.565 49.6416L272.156 67.3555H260.927L248.501 49.7909ZM244.868 23.1076V42.7723H250.401C253.29 42.7723 255.779 41.8234 257.872 39.9209C259.963 38.0199 261.008 35.6813 261.01 32.9023C261.01 30.176 259.963 27.8616 257.872 25.9591C255.779 24.0581 253.29 23.1091 250.401 23.1076H244.868ZM216.3 14.8142H225.754V67.3555H216.3V14.8142ZM155.037 67.3555V13.2375L181.21 54.4453L207.384 13.1621V67.3555H197.888V45.2497L183.811 67.3555H178.526L164.491 45.3251V67.3555H155.037Z" fill="#1E2E05"/>
<path d="M552.832 86.3301H155.037V95.4066H552.832V86.3301Z" fill="white"/>
<path d="M287.635 86.3301H155.037V95.4066H287.635V86.3301Z" fill="#00984A"/>
<path d="M552.832 86.3301H420.233V95.4066H552.832V86.3301Z" fill="#C51D23"/>
</svg>
