<svg width="673" height="185" viewBox="0 0 673 185" fill="none" xmlns="http://www.w3.org/2000/svg">
<path d="M71 46.9064H92.9532V134.719H71V46.9064Z" fill="#C6C6C6"/>
<path d="M142.348 46.9064H164.301V101.789H142.348V46.9064Z" fill="#C6C6C6"/>
<path d="M142.348 123.743H164.301V134.719H142.348V123.743Z" fill="#C6C6C6"/>
<path d="M71 101.789V79.8362H164.301V101.789H71Z" fill="#C6C6C6"/>
<path fill-rule="evenodd" clip-rule="evenodd" d="M117.651 96.3011C143.415 96.3011 164.301 75.4149 164.301 49.6505C164.301 23.8862 143.415 3 117.651 3C91.8862 3 71 23.8862 71 49.6505C71 75.4149 91.8862 96.3011 117.651 96.3011ZM92.9532 46.9064C93.8679 39.5887 99.9782 24.9532 117.102 24.9532C134.225 24.9532 141.067 39.5887 142.348 46.9064V79.8362H92.9532V46.9064Z" fill="#C6C6C6"/>
<path d="M117.651 181.919C143.415 181.919 164.301 161.032 164.301 135.268C164.301 131.29 163.803 127.429 162.867 123.743H142.348V134.061C141.067 141.232 134.225 155.575 117.102 155.575C99.9782 155.575 93.8679 141.232 92.9532 134.061V101.789H142.348H150.138C141.739 93.6367 130.281 88.6175 117.651 88.6175C91.8862 88.6175 71 109.504 71 135.268C71 161.032 91.8862 181.919 117.651 181.919Z" fill="#C6C6C6"/>
<path d="M0 46.9064H21.9532V134.719H0V46.9064Z" fill="black"/>
<path d="M71.3479 46.9064H93.3011V101.789H71.3479V46.9064Z" fill="black"/>
<path d="M71.3479 123.743H93.3011V134.719H71.3479V123.743Z" fill="black"/>
<path d="M0 101.789V79.8362H93.3011V101.789H0Z" fill="black"/>
<path fill-rule="evenodd" clip-rule="evenodd" d="M46.6506 96.3011C72.4149 96.3011 93.3011 75.4149 93.3011 49.6505C93.3011 23.8862 72.4149 3 46.6506 3C20.8862 3 0 23.8862 0 49.6505C0 75.4149 20.8862 96.3011 46.6506 96.3011ZM21.9532 46.9064C22.8679 39.5887 28.9782 24.9532 46.1017 24.9532C63.2252 24.9532 70.0673 39.5887 71.3479 46.9064V79.8362H21.9532V46.9064Z" fill="black"/>
<path d="M46.6506 181.919C72.4149 181.919 93.3011 161.032 93.3011 135.268C93.3011 131.29 92.8033 127.429 91.8665 123.743H71.3479V134.061C70.0673 141.232 63.2252 155.575 46.1017 155.575C28.9782 155.575 22.8679 141.232 21.9532 134.061V101.789H71.3479H79.1384C70.7386 93.6367 59.2808 88.6175 46.6506 88.6175C20.8862 88.6175 0 109.504 0 135.268C0 161.032 20.8862 181.919 46.6506 181.919Z" fill="black"/>
<path d="M243.4 75.39H260.4V60.6H243.4V35.95L222.49 43.26V60.6H210.25V75.39H222.49V123.5C222.49 131.32 224.7 137.61 229.46 142.2C234.22 146.79 240.51 149 248.67 149H258.7V131.15H252.07C246.29 131.15 243.4 128.26 243.4 122.14V75.39ZM274.116 31.7V149H295.196V93.92C295.196 88.99 296.386 85.08 299.106 82.36C301.826 79.64 305.226 78.28 309.306 78.28C313.386 78.28 316.786 79.64 319.336 82.36C321.716 85.08 323.076 88.82 323.076 93.92V149H344.156V91.37C344.156 81.51 341.606 73.69 336.676 68.08C331.576 62.47 324.606 59.58 315.596 59.58C311.516 59.58 307.776 60.43 304.376 61.79C300.806 63.32 297.746 65.53 295.196 68.42V31.7H274.116ZM381.816 111.09H433.496V99.36C433.496 86.27 430.096 76.41 423.636 69.61C417.176 62.98 408.336 59.58 397.286 59.58C385.896 59.58 377.056 62.98 370.596 69.61C364.136 76.24 360.906 86.1 360.906 99.36V110.07C360.906 123.67 364.136 133.87 370.936 140.33C377.566 146.79 386.576 150.02 397.966 150.02C408.676 150.02 417.176 147.47 423.466 142.37C429.586 137.27 432.816 130.64 432.816 122.14V121.29H412.756L412.586 121.8C412.246 125.03 411.056 127.58 408.676 129.28C406.296 130.98 402.896 131.83 398.816 131.83C393.376 131.83 389.126 130.47 386.236 127.58C383.176 124.86 381.816 120.1 381.816 113.47V111.09ZM385.726 81.85C388.446 79.13 392.186 77.6 397.286 77.6C407.316 77.6 412.416 83.21 412.416 94.43V96.64H381.816V96.13C381.816 89.5 383.006 84.74 385.726 81.85ZM469.638 111.09H521.318V99.36C521.318 86.27 517.918 76.41 511.458 69.61C504.998 62.98 496.158 59.58 485.108 59.58C473.718 59.58 464.878 62.98 458.418 69.61C451.958 76.24 448.728 86.1 448.728 99.36V110.07C448.728 123.67 451.958 133.87 458.758 140.33C465.388 146.79 474.398 150.02 485.788 150.02C496.498 150.02 504.998 147.47 511.288 142.37C517.408 137.27 520.638 130.64 520.638 122.14V121.29H500.578L500.408 121.8C500.068 125.03 498.878 127.58 496.498 129.28C494.118 130.98 490.718 131.83 486.638 131.83C481.198 131.83 476.948 130.47 474.058 127.58C470.998 124.86 469.638 120.1 469.638 113.47V111.09ZM473.548 81.85C476.268 79.13 480.008 77.6 485.108 77.6C495.138 77.6 500.238 83.21 500.238 94.43V96.64H469.638V96.13C469.638 89.5 470.828 84.74 473.548 81.85ZM566.3 75.39H583.3V60.6H566.3V35.95L545.39 43.26V60.6H533.15V75.39H545.39V123.5C545.39 131.32 547.6 137.61 552.36 142.2C557.12 146.79 563.41 149 571.57 149H581.6V131.15H574.97C569.19 131.15 566.3 128.26 566.3 122.14V75.39ZM653.986 67.57C647.866 62.3 639.366 59.58 628.146 59.58C618.116 59.58 610.126 62.13 604.346 66.89C598.396 71.65 595.506 78.28 595.506 86.44V87.12H615.056V86.61C615.056 83.38 616.076 80.83 618.456 78.79C620.836 76.75 623.896 75.73 627.976 75.73C637.326 75.73 642.086 80.49 642.086 89.84V96.81H623.386C613.866 96.81 606.386 99.19 601.116 103.78C595.676 108.37 593.126 114.66 593.126 122.48C593.126 131.15 595.506 137.95 600.606 142.71C605.536 147.64 612.506 150.02 621.686 150.02C626.446 150.02 630.356 149.34 633.416 147.98C636.476 146.62 639.536 144.41 642.596 141.35V149H662.996V90.86C662.996 80.66 659.936 72.84 653.986 67.57ZM638.346 129.28C635.966 131.83 631.886 133.02 626.446 133.02C617.776 133.02 613.526 129.45 613.526 121.97C613.526 114.83 617.946 111.26 626.786 111.26H642.086V117.55C642.086 122.82 640.726 126.73 638.346 129.28Z" fill="black"/>
</svg>
