<svg width="247" height="96" viewBox="0 0 247 96" fill="none" xmlns="http://www.w3.org/2000/svg">
<path fill-rule="evenodd" clip-rule="evenodd" d="M100.242 83.6563C100.242 83.0509 100.583 82.5555 100.924 82.2253C100.981 82.1703 101.038 82.1152 101.151 81.9501C101.151 81.8951 101.094 81.8401 100.981 81.73C100.867 81.6199 100.753 81.6199 100.64 81.6199C100.469 81.6199 98.8771 81.9501 98.1949 82.2253C97.4558 82.5005 97.1715 82.7206 96.7167 83.3261C96.5987 83.4892 96.4669 83.6814 96.3199 83.8959C95.4935 85.1016 94.1857 87.0097 92.133 88.4088C91.2867 88.8737 90.5076 89.05 89.894 89.05C89.098 89.05 88.5295 88.7198 88.5295 87.8942C88.5295 87.7291 88.5295 87.564 88.5863 87.3438H88.8706C91.2585 87.3438 93.817 85.9679 93.817 84.0966C93.817 82.9409 92.8504 82.4455 91.0311 82.4455C87.165 82.4455 84.8908 85.4726 84.8908 87.8392C84.8908 89.3802 85.971 90.7011 88.6432 90.7011C90.3502 90.7011 91.8989 90.1652 93.3225 89.1572C94.6666 88.3024 96.414 86.2335 97.2283 84.8671C97.2852 85.5826 97.342 86.5182 97.342 87.0135C97.342 88.5546 96.9441 89.3801 96.0912 89.3801C95.4659 89.3801 95.011 89.215 94.6699 88.8848C94.6265 88.8638 94.5913 88.8428 94.5613 88.8248C94.5127 88.7957 94.4776 88.7747 94.4425 88.7747C94.3856 88.7747 94.3288 88.8298 94.2719 88.9949C94.1582 89.215 94.1013 89.4902 94.1013 89.6553C94.1013 90.4809 94.8405 90.8111 95.807 90.8111C97.74 90.8111 100.81 89.4902 100.81 87.1786C100.81 86.5343 100.649 85.8431 100.498 85.1965C100.366 84.628 100.242 84.094 100.242 83.6563ZM104.449 90.646C105.984 90.646 107.633 89.8755 109.338 87.9492C109.623 87.6189 109.736 87.2337 109.793 86.4081C109.793 86.0779 109.793 85.9128 109.623 85.9128C109.598 85.9128 109.584 85.9336 109.562 85.9661C109.534 86.0084 109.492 86.0707 109.395 86.1329C107.917 87.729 106.552 88.5546 106.098 88.5546C105.813 88.5546 105.7 88.3895 105.7 88.0592C105.7 87.5089 106.211 85.9128 106.723 84.3718L107.746 84.2617C108.201 84.2066 108.258 84.1516 108.599 83.4361C108.77 83.1609 108.884 82.8307 108.884 82.7757C108.884 82.6656 108.827 82.6106 108.599 82.6106H107.178C107.462 81.785 107.69 81.2346 107.974 80.8494C108.088 80.7393 108.144 80.6843 108.144 80.5192C108.144 80.4641 108.088 80.4091 107.917 80.4091C105.586 80.4091 104.449 80.6292 103.88 82.0602L103.653 82.6106H102.914C102.516 82.6106 102.402 82.6106 102.232 82.9958C102.004 83.6012 101.89 83.9315 101.89 84.0415C101.89 84.2066 102.061 84.2617 102.459 84.3167L103.084 84.3718C102.573 85.9128 102.061 87.6189 102.061 88.4995C102.061 89.7103 102.63 90.646 104.449 90.646ZM109.395 89.8204C109.395 90.8661 110.191 91.1964 111.158 91.1964C112.238 91.1964 113.546 90.646 113.546 89.3801C113.546 88.3344 112.693 87.9492 111.783 87.9492C110.475 87.9492 109.395 88.6646 109.395 89.8204ZM125.769 90.0956C125.542 89.7654 125.428 89.3251 125.428 88.8298C125.428 88.0742 126.08 86.2732 126.658 84.6751C127.132 83.3629 127.557 82.1875 127.532 81.8401C127.532 81.5649 127.418 81.3998 127.02 81.2346C126.565 81.0695 125.656 80.7944 125.03 80.6292C124.524 81.0145 123.211 81.3775 122.031 81.704C121.356 81.8905 120.725 82.0652 120.311 82.2253C120.027 82.3354 119.686 83.9315 119.686 84.702C119.686 84.8671 119.743 84.8671 119.8 84.8671C119.856 84.8671 120.027 84.8121 120.198 84.757C120.906 84.4633 121.883 84.2131 122.691 84.0065C122.791 83.9808 122.889 83.9558 122.983 83.9315C122.859 84.4146 122.661 85.0709 122.449 85.7764C121.984 87.3213 121.448 89.1026 121.448 89.8204C121.448 90.5909 121.789 90.8111 122.415 90.8111C123.097 90.8111 124.405 90.5359 125.769 90.0956ZM128.328 91.7467C128.214 91.7467 128.157 91.8018 128.1 91.9118C127.93 92.2971 127.759 92.9575 127.816 93.4529C127.816 94.7187 128.498 95.3792 130.602 95.3792C135.491 95.3792 138.846 90.8661 138.846 85.2523C138.846 82.5555 137.766 80.7943 134.411 80.7943C131.17 80.7943 128.839 83.271 128.839 86.243C128.839 88.8298 130.318 89.8204 132.251 89.8204C133.047 89.8204 133.786 89.6003 134.354 89.2701C133.672 91.4165 132.592 92.8475 130.943 92.8475C129.404 92.8475 128.783 92.1888 128.502 91.8905C128.42 91.8032 128.366 91.7467 128.328 91.7467ZM134.639 87.674C134.354 87.784 134.07 87.8391 133.729 87.8391C132.819 87.8391 132.421 87.1236 132.364 85.8027C132.364 83.9315 133.217 82.7757 134.184 82.7757C134.923 82.7757 135.264 83.216 135.264 84.3167C135.264 85.3074 134.98 87.0686 134.639 87.674ZM144.304 90.8111C147.772 90.8111 150.501 89.2701 150.501 86.5182C150.501 85.4175 149.932 84.3167 148.625 83.216C150.899 81.9501 151.809 80.7393 151.809 79.2533C151.809 77.327 150.16 76.1712 147.601 76.1712C144.418 76.1712 141.973 77.8774 141.973 80.1889C141.973 81.3447 142.371 82.1152 143.508 83.216C140.893 84.9221 139.983 86.243 139.983 87.7841C139.983 89.7104 141.461 90.8111 144.304 90.8111ZM143.622 87.3988C143.622 86.4632 144.19 85.5275 145.214 84.702C146.521 85.6926 146.862 86.243 146.919 87.0135C146.919 87.9492 146.237 88.8298 145.043 88.8298C144.076 88.8298 143.622 88.2794 143.622 87.3988ZM145.498 79.6386C145.498 78.8681 146.066 78.2076 147.09 78.2076C147.943 78.2076 148.397 78.7029 148.397 79.4184C148.397 80.1889 148.113 81.0145 146.919 81.73C145.839 80.7944 145.498 80.244 145.498 79.6386ZM154.651 90.5359H159.427C160.451 90.5359 161.19 89.8204 161.872 87.3438C161.872 87.2337 161.758 87.1786 161.701 87.1786C161.68 87.1786 161.661 87.1921 161.63 87.2139C161.493 87.309 161.128 87.5639 159.37 87.5639H157.38C161.19 85.9678 162.042 84.8671 162.042 83.4361C162.042 81.6199 160.223 80.7943 157.722 80.7943C154.765 80.7943 152.946 81.785 152.946 83.3261C152.946 83.9315 153.173 84.4818 154.253 84.8671C154.367 84.9221 154.481 84.9221 154.538 84.9221C154.651 84.9221 154.708 84.8671 154.765 84.6469C155.277 83.4361 155.845 82.7757 156.926 82.7757C157.551 82.7757 158.063 83.1059 158.063 83.8764C158.063 85.2429 155.96 86.2701 153.849 87.3012C153.409 87.516 152.969 87.7309 152.548 87.9492C152.093 88.1693 151.979 88.4995 151.752 90.5909C152.491 90.5359 153.741 90.5359 154.651 90.5359H154.651ZM11.7192 67.8056V49.4783L39.5779 72.3737C40.317 72.9791 40.4875 72.7589 40.4875 72.2636V27.2433H29.3441V49.4783L1.48536 26.5278C0.746247 25.9224 0.575684 26.2527 0.575684 26.6379V67.8056H11.7192ZM78.2389 27.2433H47.1395V71.6032H79.2055V61.5864H59.0221V54.6518H71.3027V45.1854H59.0221V37.205H78.2389V27.2433ZM123.325 27.2433H110.475L96.7735 45.6257V27.2433H84.8909V71.6582H96.7735V60.1004C97.2338 59.5275 97.897 58.7173 98.5349 57.938C99.5311 56.7209 100.466 55.5791 100.47 55.5338L111.044 71.6582H125.087L108.599 46.5063L123.325 27.2433ZM126.054 37.205H137.822V71.6032H149.705V37.205H161.417V27.2433H126.054V37.205ZM183.725 27.2292C185.18 27.2177 186.346 27.2085 186.49 27.2433L207.071 71.6032H195.473L193.881 67.8056H175.858L179.724 58.9446H190.129L181.032 39.1313L171.935 58.9446L168.126 67.8056L166.534 71.6032H154.936L175.574 27.2433H181.032C181.931 27.2433 182.877 27.2359 183.725 27.2292ZM227.653 27.1883C239.592 27.1883 246.301 34.7834 246.301 44.635C246.301 51.4596 243.06 57.1835 237.204 59.9904L244.823 71.6032H230.78L224.469 62.0267H222.706V71.6032H210.824V27.1883H227.653ZM227.027 37.2601H222.649V51.955H227.027C232.428 51.955 234.361 48.9279 234.361 44.635C234.361 40.3421 232.371 37.2601 227.027 37.2601ZM88.7569 86.4082C89.2686 84.3168 89.9509 83.5463 90.3488 83.5463C90.6331 83.5463 90.69 83.7664 90.6331 84.0966C90.6331 85.1423 89.7803 86.1881 88.7569 86.4082Z" fill="#BD995C"/>
<path d="M98.7633 16.346C98.1947 16.9514 97.5125 17.5018 96.7165 17.9421C95.9774 18.3824 95.1246 18.7676 94.2149 19.0428C93.3052 19.318 92.3956 19.4281 91.3722 19.4281C90.0077 19.4281 88.7569 19.1529 87.5629 18.6576C86.369 18.1622 85.2887 17.4467 84.3791 16.5661C83.4694 15.6856 82.7871 14.6398 82.2755 13.4841C81.7638 12.3283 81.4795 11.0624 81.4795 9.68652C81.4795 8.36563 81.7638 7.09978 82.2755 5.944C82.7871 4.78822 83.5262 3.74252 84.3791 2.86193C85.2887 1.98133 86.3121 1.26585 87.5629 0.770518C88.7569 0.275185 90.0645 0 91.3722 0C92.3956 0 93.3052 0.110074 94.2149 0.385259C95.1246 0.660444 95.9205 0.990666 96.7165 1.486C97.4556 1.9263 98.1379 2.47667 98.7633 3.13711C99.3318 3.74252 99.8435 4.40296 100.241 5.11844H96.0911C95.4088 4.51304 94.6697 4.07274 93.9875 3.85259C93.3052 3.63244 92.3956 3.52237 91.429 3.52237C90.5762 3.52237 89.7802 3.68748 88.9843 4.0177C88.1883 4.34792 87.5629 4.78822 86.9375 5.33859C86.369 5.88896 85.9141 6.54941 85.573 7.31992C85.2319 8.09044 85.0613 8.86096 85.0613 9.68652C85.0613 10.5671 85.2319 11.3376 85.573 12.1081C85.9141 12.8787 86.369 13.5391 86.9375 14.0895C87.5061 14.6398 88.1883 15.0801 88.9843 15.4104C89.7802 15.7406 90.5762 15.9057 91.429 15.9057C92.4524 15.9057 93.3052 15.7956 93.9875 15.5755C94.6697 15.3553 95.4088 14.9701 96.0911 14.3096H100.185C99.8435 15.0801 99.3318 15.7406 98.7633 16.346ZM119.345 18.9878V17.2816C118.321 18.0521 117.298 18.6025 116.331 18.9327C115.365 19.263 114.228 19.4281 112.977 19.4281C111.612 19.4281 110.362 19.1529 109.168 18.6576C107.974 18.1622 106.893 17.4467 105.984 16.5661C105.074 15.6856 104.335 14.6398 103.823 13.4841C103.312 12.3283 103.027 11.0624 103.027 9.68652C103.027 8.36563 103.312 7.09978 103.823 5.944C104.335 4.78822 105.074 3.74252 105.984 2.86193C106.893 1.98133 107.974 1.26585 109.168 0.770518C110.362 0.275185 111.669 0 112.977 0C114.228 0 115.365 0.165111 116.331 0.495333C117.298 0.825555 118.321 1.37593 119.345 2.25652V0.55037H122.926V18.9878H119.345ZM119.345 9.74155C119.345 8.916 119.174 8.09044 118.833 7.37496C118.492 6.65948 118.037 5.944 117.468 5.39363C116.9 4.84326 116.218 4.40296 115.422 4.07274C114.626 3.74252 113.83 3.57741 112.92 3.57741C112.01 3.57741 111.214 3.74252 110.418 4.07274C109.622 4.40296 108.997 4.84326 108.372 5.39363C107.803 5.944 107.348 6.60444 107.007 7.37496C106.666 8.14548 106.495 8.916 106.495 9.74155C106.495 10.6221 106.666 11.3927 107.007 12.1632C107.348 12.9337 107.803 13.5941 108.372 14.1445C108.94 14.6949 109.622 15.1352 110.418 15.4654C111.214 15.7956 112.01 15.9607 112.92 15.9607C113.83 15.9607 114.626 15.7956 115.422 15.4654C116.218 15.1352 116.9 14.6949 117.468 14.1445C118.037 13.5941 118.492 12.9337 118.833 12.1632C119.174 11.3927 119.345 10.6221 119.345 9.74155ZM136.117 18.9878H133.388L125.599 0.55037H129.351L134.695 12.8787L140.153 0.55037H143.963L136.117 18.9878ZM161.019 18.9878V17.2816C159.996 18.0521 158.972 18.6025 158.006 18.9327C157.039 19.263 155.902 19.4281 154.651 19.4281C153.287 19.4281 152.036 19.1529 150.842 18.6576C149.648 18.1622 148.568 17.4467 147.658 16.5661C146.748 15.6856 146.009 14.6398 145.498 13.4841C144.986 12.3283 144.702 11.0624 144.702 9.68652C144.702 8.36563 144.986 7.09978 145.498 5.944C146.009 4.78822 146.748 3.74252 147.658 2.86193C148.568 1.98133 149.648 1.26585 150.842 0.770518C152.036 0.275185 153.344 0 154.651 0C155.902 0 157.039 0.165111 158.006 0.495333C158.972 0.825555 159.996 1.37593 161.019 2.25652V0.55037H164.601V18.9878H161.019ZM161.019 9.74155C161.019 8.916 160.848 8.09044 160.507 7.37496C160.166 6.65948 159.711 5.944 159.143 5.39363C158.574 4.84326 157.892 4.40296 157.096 4.07274C156.3 3.74252 155.504 3.57741 154.594 3.57741C153.742 3.57741 152.889 3.74252 152.093 4.07274C151.297 4.40296 150.671 4.84326 150.046 5.39363C149.477 5.944 149.023 6.60444 148.682 7.37496C148.34 8.14548 148.17 8.916 148.17 9.74155C148.17 10.6221 148.34 11.3927 148.682 12.1632C149.023 12.9337 149.477 13.5941 150.046 14.1445C150.615 14.6949 151.297 15.1352 152.093 15.4654C152.889 15.7956 153.685 15.9607 154.594 15.9607C155.447 15.9607 156.3 15.7956 157.096 15.4654C157.892 15.1352 158.574 14.6949 159.143 14.1445C159.711 13.5941 160.166 12.9337 160.507 12.1632C160.848 11.3927 161.019 10.6221 161.019 9.74155Z" fill="#BD995C"/>
</svg>
