<svg width="270" height="63" viewBox="0 0 270 63" fill="none" xmlns="http://www.w3.org/2000/svg">
<path d="M0.509766 20.5142H13.0589V30.5781C15.5069 29.6864 18.1031 29.237 20.7186 29.2521C30.5774 29.2521 37.7242 36.2418 37.7242 45.8211C37.7242 53.0516 32.6105 61.6052 20.9643 61.6052H0.509766V20.5142ZM13.0589 51.0626C14.6264 51.3337 16.2149 51.4749 17.8071 51.4848C22.3034 51.4848 25.261 49.1331 25.261 45.4584C25.261 41.8431 22.3648 39.3725 18.1756 39.3725C16.4417 39.359 14.716 39.6036 13.0589 40.0979V51.0626ZM58.8207 29.2521C72.6843 29.2521 77.9853 37.987 77.9853 45.6992C77.9853 54.1338 71.8858 62.1492 58.9435 62.1492C45.0799 62.1492 39.6591 53.4738 39.6591 45.6992C39.6683 37.5054 45.3993 29.2521 58.8299 29.2521H58.8207ZM58.8207 51.8475C62.7396 51.8475 65.4392 49.3174 65.4392 45.7022C65.4392 42.0869 62.7396 39.5568 58.8207 39.5568C54.9017 39.5568 52.2052 42.0869 52.2052 45.7022C52.2052 49.3174 54.914 51.8445 58.8299 51.8445L58.8207 51.8475ZM80.5406 20.5142H93.0744V61.6052H80.5406V20.5142ZM109.49 54.7344C109.49 58.8313 106.213 62.1463 102.085 62.1463C97.9577 62.1463 94.6223 58.8313 94.6223 54.7344C94.6106 53.7766 94.7946 52.826 95.1639 51.9373C95.5332 51.0486 96.0805 50.2395 96.7741 49.5564C97.4678 48.8733 98.2942 48.3297 99.2057 47.9571C100.117 47.5844 101.096 47.3899 102.085 47.3849C106.213 47.3879 109.49 50.6404 109.49 54.7344ZM137.841 60.1573C133.676 61.6646 131.14 62.1463 127.706 62.1463C117.018 62.1463 109.585 55.4568 109.585 45.8776C109.585 37.9246 114.957 29.2491 127.334 29.2491C130.823 29.2497 134.289 29.799 137.595 30.8754V41.418C134.831 40.1544 132.285 39.5509 129.629 39.5509C125.16 39.5509 122.141 42.081 122.141 45.7586C122.141 49.3739 125.341 51.8416 129.991 51.8416C132.344 51.8416 134.398 51.3005 137.838 49.8555L137.841 60.1573ZM158.67 29.2372C172.534 29.2372 177.835 37.9722 177.835 45.6843C177.835 54.1189 171.732 62.1344 158.793 62.1344C144.93 62.1344 139.509 53.4589 139.509 45.6843C139.509 37.5054 145.243 29.2521 158.67 29.2521V29.2372ZM158.67 51.8326C162.589 51.8326 165.286 49.3026 165.286 45.6873C165.286 42.072 162.589 39.5419 158.67 39.5419C154.751 39.5419 152.055 42.072 152.055 45.6873C152.055 49.3026 154.764 51.8445 158.67 51.8445V51.8326ZM180.562 29.7932H193.09V34.012C196.124 30.7416 199.699 29.2551 203.661 29.2551C208.182 29.2551 211.094 30.9408 213.508 34.9039C216.791 31.2292 220.817 29.2551 225.151 29.2551C232.522 29.2551 235.713 34.9039 235.713 41.2455V61.6081H223.176V43.3534C223.176 41.0642 221.788 39.5568 219.684 39.5568C217.841 39.5568 215.737 40.7014 214.438 42.8123V61.6081H201.821V43.5913C201.821 41.2425 200.372 39.5538 198.136 39.5538C196.524 39.5538 194.45 40.6985 193.075 42.8094V61.6052H180.562V29.7932ZM250.541 1.18923C260.35 1.18923 268.333 9.0114 268.333 18.6263C268.333 28.2413 260.347 36.0545 250.541 36.0545C240.734 36.0545 232.728 28.2353 232.728 18.6263C232.728 9.01735 240.713 1.18923 250.541 1.18923ZM250.541 0C240.056 0 231.524 8.3484 231.524 18.6144C231.524 28.8805 240.056 37.22 250.541 37.22C261.026 37.22 269.552 28.8745 269.552 18.6144C269.552 8.35435 261.029 0.0118923 250.541 0.0118923V0ZM241.723 20.3061C239.266 20.3061 236.607 18.665 236.607 16.01C236.607 10.9558 243.228 6.32076 245.513 5.28911C245.869 5.12856 246.435 5.78561 246.64 6.19887C246.815 6.5378 246.745 6.66267 246.656 6.70726C242.5 8.86275 238.025 12.9061 238.025 16.6938C238.025 18.335 238.916 18.9742 241.204 18.9742C243.895 18.9742 250 15.3887 250 12.8021C250 11.8358 249.26 11.3453 247.798 11.3453C244.174 11.3453 242.221 13.6316 241.656 15.5878C241.613 15.7335 241.447 15.7989 241.226 15.7543C240.937 15.6949 240.645 15.4808 240.676 15.2311C240.909 13.4948 242.826 9.68629 246.957 9.68629C248.815 9.68629 251.081 11.3007 251.081 13.1826C251.075 16.8514 245.808 20.3061 241.723 20.3061ZM246.594 6.5705L246.631 6.64186L246.594 6.5705ZM247.685 32.5611C245.639 32.5611 242.175 31.6692 242.175 28.3097C242.175 25.7201 244.417 22.6757 248.655 19.5093L248.763 19.432C249.045 19.218 249.752 19.6491 250.071 20.0267C250.39 20.4042 250.225 20.544 250.154 20.6005C248.136 22.2357 243.397 26.065 243.397 29.1689C243.397 30.3581 244.392 31.1222 245.995 31.1222C248.096 31.1222 250.713 30.5276 253.366 29.4662C253.707 29.3324 254.107 29.7635 254.288 30.1262C254.469 30.4889 254.435 30.7 254.257 30.7951C251.889 32.0438 249.973 32.5552 247.669 32.5552L247.685 32.5611ZM256.625 20.4964C252.15 20.4964 252.098 17.3033 252.098 17.1666C252.108 16.8852 252.176 16.6087 252.298 16.3533C252.421 16.0979 252.595 15.869 252.811 15.68C252.998 15.5046 253.388 15.5968 253.545 15.6443C253.852 15.7395 254.19 15.9416 254.236 16.1408C254.244 16.1847 254.24 16.2301 254.223 16.2717C254.206 16.3133 254.178 16.3494 254.14 16.3757C253.526 16.896 253.219 17.2676 253.219 17.9901C253.219 18.6085 253.885 19.2655 255.12 19.2655C259.982 19.2655 263.084 15.2192 263.084 13.1024C263.084 11.1728 261.619 10.7685 260.39 10.7685C256.124 10.7685 252.998 14.7167 252.866 14.8862C252.835 14.9251 252.794 14.9554 252.747 14.9737C252.7 14.992 252.649 14.9977 252.599 14.9903C252.264 14.9486 251.803 14.4521 251.628 14.0508C251.581 13.9726 251.557 13.8839 251.557 13.7936C251.557 13.7033 251.581 13.6146 251.628 13.5364C252.413 12.6094 253.313 11.7805 254.309 11.0688C256.038 9.829 257.721 9.20168 259.303 9.20168C262.7 9.20168 264.251 11.6069 264.251 13.8397C264.217 17.3836 260.661 20.4905 256.61 20.4905L256.625 20.4964Z" fill="#0000A4"/>
</svg>
